<svg width="90" height="50" viewBox="0 0 90 50" fill="none" xmlns="http://www.w3.org/2000/svg">
    <g clip-path="url(#clip0_14_2)">
        <path
            d="M35.875 5.34375C36.875 8.96875 38.2708 13.5729 40.0625 19.1562C41.8542 24.7396 43.25 29.3021 44.25 32.8438C45.25 36.3646 45.8229 38.125 45.9688 38.125C46.1146 38.125 47.5104 33.6354 50.1562 24.6562C52.8021 15.6771 54.5729 9.23958 55.4688 5.34375H68.125C68.375 5.96875 68.5 6.57292 68.5 7.15625C68.5 7.67708 68.3958 8.04167 68.1875 8.25C67.9792 8.45833 67.6146 8.5625 67.0938 8.5625H65.0312C64.9479 12.3958 65.0104 18.6667 65.2188 27.375C65.4271 36.0833 65.6354 41.8854 65.8438 44.7812H68.875C69.1458 45.4062 69.2812 46.0104 69.2812 46.5938C69.2812 47.1146 69.1771 47.4792 68.9688 47.6875C68.7604 47.8958 68.3854 48 67.8438 48H55.5938C55.3229 47.2917 55.1875 46.6354 55.1875 46.0312C55.1875 45.5938 55.2917 45.2812 55.5 45.0938C55.7292 44.8854 56.0938 44.7812 56.5938 44.7812H58.4375C58.6042 41.1562 58.5312 30.1354 58.2188 11.7188C56.5938 17.9688 54.7188 24.3333 52.5938 30.8125C50.4688 37.2917 49.0625 41.125 48.375 42.3125C47.6875 43.5 46.5729 44.0938 45.0312 44.0938C42.8229 44.0938 41.5833 44.0104 41.3125 43.8438C41.0625 43.6771 39.6667 40.0417 37.125 32.9375C34.6042 25.8125 32.3854 18.6875 30.4688 11.5625C30.4062 30.0833 30.4479 41.1562 30.5938 44.7812H33.5C33.75 45.4062 33.875 46.0104 33.875 46.5938C33.875 47.1146 33.7708 47.4792 33.5625 47.6875C33.3542 47.8958 32.9896 48 32.4688 48H20.9688C20.7188 47.2917 20.5938 46.6354 20.5938 46.0312C20.5938 45.5938 20.6979 45.2812 20.9062 45.0938C21.1354 44.8854 21.5 44.7812 22 44.7812H24.2812C24.5104 41.8854 24.7188 36.0833 24.9062 27.375C25.1146 18.6667 25.1979 12.3958 25.1562 8.5625H22C21.75 7.85417 21.625 7.19792 21.625 6.59375C21.625 6.15625 21.7292 5.84375 21.9375 5.65625C22.1667 5.44792 22.5312 5.34375 23.0312 5.34375H35.875Z"
            fill="white" />
        <path
            d="M75.6739 10C75.2035 10 74.7431 10.0465 74.2975 10.1354C73.9988 10.195 73.7658 10.4293 73.7079 10.7283L73.348 12.5868C73.3191 12.7361 73.1648 12.8252 73.021 12.7756L71.2303 12.1576C70.9431 12.0584 70.6244 12.1425 70.4233 12.3703C69.8152 13.0594 69.3402 13.8699 69.0395 14.7614C68.9423 15.0497 69.0288 15.3681 69.2585 15.5675L70.6911 16.811C70.8059 16.9106 70.8059 17.0889 70.6911 17.1886L69.2584 18.4321C69.0287 18.6315 68.9421 18.9499 69.0394 19.2382C69.34 20.1297 69.8149 20.9401 70.4229 21.6293C70.624 21.8572 70.9427 21.9412 71.23 21.842L73.021 21.2239C73.1648 21.1743 73.3191 21.2634 73.348 21.4127L73.708 23.2717C73.7659 23.5707 73.9989 23.805 74.2976 23.8646C74.7432 23.9535 75.2035 24 75.6739 24C76.1476 24 76.6111 23.9528 77.0595 23.8627C77.3578 23.8028 77.5903 23.5687 77.6481 23.27L78.0078 21.4127C78.0367 21.2634 78.191 21.1743 78.3348 21.2239L80.1197 21.8399C80.4071 21.9391 80.7259 21.855 80.927 21.6269C81.5353 20.9367 82.0103 20.125 82.3105 19.2322C82.4074 18.9441 82.3208 18.626 82.0912 18.4267L80.6647 17.1885C80.5499 17.0889 80.5499 16.9106 80.6647 16.811L82.0911 15.5729C82.3206 15.3736 82.4072 15.0555 82.3103 14.7674C82.0101 13.8745 81.5351 13.0629 80.9266 12.3727C80.7256 12.1447 80.4067 12.0605 80.1193 12.1597L78.3348 12.7756C78.191 12.8252 78.0367 12.7361 78.0078 12.5868L77.6482 10.73C77.5904 10.4314 77.3579 10.1972 77.0597 10.1373C76.6111 10.0472 76.1477 10 75.6739 10ZM73.9248 17C73.9248 16.0336 74.7083 15.2501 75.6748 15.2501C76.6414 15.2501 77.4248 16.0336 77.4248 17C77.4248 17.9664 76.6414 18.7499 75.6748 18.7499C74.7083 18.7499 73.9248 17.9664 73.9248 17ZM80.0857 22.7838C80.2081 22.6223 80.4228 22.5678 80.6143 22.6339L81.8738 23.0686C82.1351 23.1588 82.4158 22.9968 82.4683 22.7254L82.7217 21.417C82.7602 21.2178 82.9151 21.059 83.1165 21.0342C83.2991 21.0116 83.4851 21 83.6738 21C83.8625 21 84.0484 21.0116 84.231 21.0342C84.4324 21.059 84.5873 21.2178 84.6259 21.417L84.8792 22.7254C84.9318 22.9968 85.2124 23.1588 85.4738 23.0686L86.7332 22.6339C86.9248 22.5678 87.1394 22.6223 87.2618 22.7838C87.4859 23.0793 87.6742 23.4033 87.8205 23.7495C87.8995 23.9362 87.8394 24.1495 87.6863 24.2824L86.6792 25.1565C86.4704 25.3378 86.4704 25.6618 86.6792 25.8431L87.6864 26.7174C87.8395 26.8502 87.8996 27.0635 87.8207 27.2502C87.6744 27.5963 87.4861 27.9203 87.2621 28.2158C87.1397 28.3773 86.925 28.4319 86.7334 28.3658L85.4738 27.931C85.2124 27.8408 84.9318 28.0028 84.8792 28.2742L84.6258 29.583C84.5872 29.7822 84.4323 29.941 84.2309 29.9658C84.0484 29.9884 83.8624 30 83.6738 30C83.4851 30 83.2992 29.9884 83.1166 29.9658C82.9152 29.941 82.7603 29.7822 82.7217 29.583L82.4683 28.2742C82.4158 28.0028 82.1351 27.8408 81.8738 27.931L80.6141 28.3658C80.4225 28.4319 80.2079 28.3773 80.0855 28.2158C79.8615 27.9203 79.6731 27.5963 79.5269 27.2502C79.448 27.0635 79.5081 26.8502 79.6612 26.7173L80.6684 25.8431C80.8771 25.6618 80.8771 25.3378 80.6684 25.1565L79.6613 24.2824C79.5082 24.1495 79.4481 23.9362 79.527 23.7495C79.6733 23.4034 79.8617 23.0793 80.0857 22.7838ZM84.9241 25.5C84.9241 24.8094 84.3642 24.2495 83.6736 24.2495C82.9829 24.2495 82.423 24.8094 82.423 25.5C82.423 26.1907 82.9829 26.7506 83.6736 26.7506C84.3642 26.7506 84.9241 26.1907 84.9241 25.5Z"
            fill="white" />
        <path
            d="M8.08023 24.5316L7.82068 25.872C7.61834 26.9169 6.53781 27.5408 5.53168 27.1935L4.23824 26.7471C4.00313 27.0671 3.80194 27.4132 3.63983 27.7802L4.67435 28.6782C5.47819 29.3759 5.47818 30.6236 4.67435 31.3214L3.63968 32.2194C3.80175 32.5864 4.00289 32.9325 4.23795 33.2525L5.53168 32.806C6.53781 32.4587 7.61834 33.0826 7.82068 34.1275L8.08032 35.4684C8.47266 35.5104 8.88354 35.5101 9.27569 35.4675L9.53516 34.1275C9.73753 33.0826 10.818 32.4587 11.8241 32.806L13.1115 33.2503C13.3469 32.9295 13.5483 32.5824 13.7104 32.2144L12.6815 31.3214C11.8776 30.6236 11.8776 29.3759 12.6815 28.6782L13.7102 27.7852C13.5481 27.4172 13.3467 27.0702 13.1112 26.7494L11.8241 27.1935C10.818 27.5408 9.73753 26.9169 9.53516 25.872L9.27579 24.5325C8.88357 24.4899 8.47263 24.4896 8.08023 24.5316ZM7.29749 23.1354C7.74313 23.0465 8.20347 23 8.67392 23C9.14766 23 9.61114 23.0472 10.0597 23.1373C10.3579 23.1972 10.5904 23.4314 10.6482 23.73L11.0078 25.5868C11.0367 25.7361 11.191 25.8252 11.3348 25.7756L13.1193 25.1597C13.4067 25.0605 13.7256 25.1447 13.9266 25.3727C14.5351 26.0629 15.0101 26.8745 15.3103 27.7674C15.4072 28.0555 15.3206 28.3736 15.0911 28.5729L13.6647 29.811C13.5499 29.9106 13.5499 30.0889 13.6647 30.1885L15.0912 31.4267C15.3208 31.626 15.4074 31.9441 15.3105 32.2322C15.0103 33.125 14.5353 33.9367 13.927 34.6269C13.7259 34.855 13.4071 34.9391 13.1197 34.8399L11.3348 34.2239C11.191 34.1743 11.0367 34.2634 11.0078 34.4127L10.6481 36.27C10.5903 36.5687 10.3578 36.8028 10.0595 36.8627C9.61106 36.9528 9.14762 37 8.67392 37C8.20351 37 7.74321 36.9535 7.2976 36.8646C6.9989 36.805 6.76591 36.5707 6.708 36.2717L6.34804 34.4127C6.31913 34.2634 6.16477 34.1743 6.02104 34.2239L4.23001 34.842C3.94272 34.9412 3.62399 34.8572 3.42292 34.6293C2.81493 33.9401 2.34003 33.1297 2.03936 32.2382C1.94215 31.9499 2.02868 31.6315 2.25841 31.4321L3.6911 30.1886C3.80593 30.0889 3.80593 29.9106 3.6911 29.811L2.25854 28.5675C2.02879 28.3681 1.94227 28.0497 2.03951 27.7614C2.34025 26.8699 2.81522 26.0594 3.42329 25.3703C3.62436 25.1425 3.94307 25.0584 4.23034 25.1576L6.02104 25.7756C6.16477 25.8252 6.31913 25.7361 6.34804 25.5868L6.70791 23.7283C6.76581 23.4293 6.9988 23.195 7.29749 23.1354ZM13.6144 35.6339C13.4228 35.5678 13.2082 35.6223 13.0857 35.7838C12.8617 36.0793 12.6733 36.4034 12.527 36.7495C12.4481 36.9362 12.5082 37.1495 12.6613 37.2824L13.6684 38.1565C13.8772 38.3378 13.8772 38.6618 13.6684 38.8431L12.6612 39.7173C12.5081 39.8502 12.448 40.0635 12.5269 40.2502C12.6732 40.5963 12.8615 40.9203 13.0855 41.2158C13.2079 41.3773 13.4226 41.4319 13.6141 41.3658L14.8738 40.931C15.1352 40.8408 15.4158 41.0028 15.4684 41.2742L15.7218 42.583C15.7604 42.7822 15.9153 42.941 16.1167 42.9658C16.2992 42.9884 16.4852 43 16.6738 43C16.8625 43 17.0484 42.9884 17.2309 42.9658C17.4323 42.941 17.5873 42.7822 17.6258 42.583L17.8792 41.2742C17.9318 41.0028 18.2125 40.8408 18.4738 40.931L19.7335 41.3658C19.9251 41.4319 20.1397 41.3773 20.2621 41.2158C20.4861 40.9203 20.6744 40.5963 20.8207 40.2502C20.8996 40.0635 20.8395 39.8502 20.6864 39.7174L19.6792 38.8431C19.4704 38.6618 19.4704 38.3378 19.6792 38.1565L20.6863 37.2824C20.8394 37.1495 20.8995 36.9362 20.8206 36.7495C20.6743 36.4033 20.4859 36.0793 20.2619 35.7838C20.1394 35.6223 19.9248 35.5678 19.7333 35.6339L18.4738 36.0686C18.2125 36.1588 17.9318 35.9968 17.8792 35.7254L17.6259 34.417C17.5873 34.2178 17.4324 34.059 17.231 34.0342C17.0485 34.0116 16.8625 34 16.6738 34C16.4851 34 16.2992 34.0116 16.1166 34.0342C15.9152 34.059 15.7603 34.2178 15.7217 34.417L15.4684 35.7254C15.4158 35.9968 15.1352 36.1588 14.8738 36.0686L13.6144 35.6339ZM16.6736 39.7506C15.9829 39.7506 15.423 39.1907 15.423 38.5C15.423 37.8094 15.9829 37.2495 16.6736 37.2495C17.3643 37.2495 17.9242 37.8094 17.9242 38.5C17.9242 39.1907 17.3643 39.7506 16.6736 39.7506ZM7.67386 29.9999C7.67386 29.4477 8.12155 29 8.67386 29C9.22617 29 9.67383 29.4477 9.67383 29.9999C9.67383 30.5522 9.22617 30.9999 8.67386 30.9999C8.12155 30.9999 7.67386 30.5522 7.67386 29.9999ZM8.67386 27.5C7.29318 27.5 6.17386 28.6192 6.17386 29.9999C6.17386 31.3806 7.29318 32.4999 8.67386 32.4999C10.0545 32.4999 11.1738 31.3806 11.1738 29.9999C11.1738 28.6192 10.0545 27.5 8.67386 27.5Z"
            fill="white" />
    </g>
    <defs>
        <clipPath id="clip0_14_2">
            <rect width="90" height="50" fill="white" />
        </clipPath>
    </defs>
</svg>