<svg width="104" height="70" viewBox="0 0 104 70" fill="none" xmlns="http://www.w3.org/2000/svg">
<path d="M30.2783 50.304C29.8089 50.304 29.2969 50.112 28.7423 49.728C28.1876 49.3867 27.6756 48.96 27.2063 48.448C26.7796 47.936 26.4596 47.488 26.2463 47.104C26.7583 46.592 27.0996 46.0587 27.2703 45.504C27.6116 45.1627 27.9103 44.7787 28.1663 44.352C28.4223 43.9253 28.6356 43.4987 28.8063 43.072H28.9983C29.1689 42.816 29.2969 42.5387 29.3823 42.24C29.5103 41.9413 29.6596 41.664 29.8303 41.408L30.1503 40.192L31.1103 39.68L31.8142 38.592L32.3263 37.888L32.0063 37.504L32.0703 37.248L32.3263 37.184L32.6463 37.44L33.2223 36.864H33.0943L32.7103 37.056L33.1583 35.968V35.84L32.5823 36.224C32.6676 35.968 32.7956 35.7333 32.9663 35.52C33.1369 35.3067 33.3716 35.2 33.6703 35.2L34.0543 34.304L33.9903 33.92L35.3343 32.192L35.2063 31.68C35.3769 31.424 35.5263 31.1893 35.6543 30.976C35.8249 30.72 35.9529 30.4427 36.0383 30.144L36.8703 29.888L36.9343 29.632L36.6143 28.928C36.6143 28.288 36.9556 27.9253 37.6383 27.84L37.2543 27.648L37.1903 27.584L37.7023 27.072L37.7663 27.328L38.2143 26.88L37.8943 26.432C38.1076 26.1333 38.2356 25.8133 38.2783 25.472C38.3209 25.088 38.3423 24.7253 38.3423 24.384C39.1529 23.4027 39.6436 22.4427 39.8143 21.504C40.0276 20.5227 40.1556 19.4347 40.1983 18.24L39.8143 17.92C38.7903 17.9627 37.8089 18.1333 36.8703 18.432C35.9743 18.7307 35.0569 19.1147 34.1183 19.584C33.1369 20.096 32.4543 20.5867 32.0703 21.056C31.6863 21.5253 31.3663 21.9947 31.1103 22.464C30.8969 22.9333 30.4489 23.4667 29.7663 24.064C29.4676 24.3627 29.0196 24.64 28.4223 24.896C27.8676 25.1093 27.6329 25.5147 27.7183 26.112C26.4809 26.5387 25.7129 27.3067 25.4143 28.416C25.1583 29.5253 25.0303 30.6347 25.0303 31.744C24.9876 31.7867 24.9449 31.872 24.9023 32C24.8596 32.128 24.8169 32.2347 24.7743 32.32C24.3476 31.936 24.0703 31.3173 23.9423 30.464C23.8143 29.568 23.7503 28.8427 23.7503 28.288C23.7503 27.3493 24.1129 26.368 24.8383 25.344C25.5636 24.2773 26.5023 23.2533 27.6543 22.272C28.8489 21.248 30.1076 20.3307 31.4303 19.52C32.7529 18.7093 34.0329 18.0693 35.2703 17.6C36.5076 17.088 37.5316 16.832 38.3423 16.832C39.1529 16.832 40.0489 17.024 41.0303 17.408C42.0543 17.7493 42.9289 18.2613 43.6543 18.944C44.4223 19.6267 44.8063 20.416 44.8063 21.312C44.8063 21.9947 44.5716 22.8053 44.1023 23.744C43.6329 24.64 43.2489 25.3867 42.9503 25.984C42.8223 26.0693 42.4383 26.56 41.7983 27.456C41.1583 28.352 40.4116 29.4613 39.5583 30.784C38.7049 32.064 37.8516 33.3653 36.9983 34.688C36.1449 35.968 35.4196 37.0773 34.8223 38.016C34.2676 38.9547 33.9476 39.5093 33.8623 39.68C33.6489 39.9787 33.3503 40.384 32.9663 40.896C32.5823 41.408 32.3903 41.856 32.3903 42.24L32.4543 42.688C33.0943 42.048 33.9689 41.1093 35.0783 39.872C36.2303 38.592 37.4889 37.1627 38.8542 35.584C40.2623 34.0053 41.7129 32.4267 43.2063 30.848C44.7423 29.2267 46.2143 27.7333 47.6223 26.368C49.0729 25.0027 50.3956 23.9147 51.5903 23.104C52.7849 22.2507 53.7449 21.824 54.4703 21.824C54.7689 21.824 55.2383 21.8453 55.8783 21.888C56.5183 21.9307 57.0943 22.0587 57.6063 22.272C58.1609 22.4427 58.4383 22.7627 58.4383 23.232C58.4383 23.5307 58.3956 23.8293 58.3103 24.128C58.2249 24.384 58.2036 24.6827 58.2463 25.024C57.8196 26.6027 57.3929 28.16 56.9663 29.696C56.5396 31.232 55.8356 32.6827 54.8543 34.048C54.6409 34.3467 54.5343 34.7947 54.5343 35.392C54.5343 35.648 54.5556 35.8187 54.5983 35.904C54.3849 36.2453 54.3209 36.5653 54.4062 36.864C54.4916 37.12 54.3209 37.4827 53.8943 37.952C53.8943 38.2507 53.9796 38.5067 54.1503 38.72C54.3636 38.8907 54.5129 39.104 54.5983 39.36C55.1529 38.5067 55.8569 37.4187 56.7103 36.096C57.5636 34.7307 58.5023 33.3013 59.5263 31.808C60.5929 30.3147 61.6809 28.864 62.7903 27.456C63.9423 26.048 65.0516 24.8533 66.1183 23.872C67.1849 22.848 68.1449 22.1653 68.9983 21.824C69.3396 21.824 69.8729 21.8453 70.5983 21.888C71.3236 21.9307 71.9849 22.0373 72.5823 22.208C73.2223 22.3787 73.5423 22.6987 73.5423 23.168C73.5423 24.064 73.3929 25.2373 73.0943 26.688C72.8383 28.096 72.4969 29.4827 72.0703 30.848C71.6436 32.2133 71.1529 33.2587 70.5983 33.984L71.1743 34.944C70.9183 35.4133 70.7263 35.9253 70.5983 36.48C70.4703 36.992 70.2143 37.4827 69.8303 37.952C69.8303 38.848 69.7236 39.744 69.5103 40.64C69.2969 41.4933 69.1903 42.3893 69.1903 43.328C69.1903 43.4987 69.2116 43.6907 69.2543 43.904C69.2969 44.1173 69.2969 44.3307 69.2543 44.544L69.6383 45.376C69.9369 45.2907 70.2356 45.184 70.5343 45.056C70.8329 44.8853 71.0463 44.6507 71.1743 44.352L71.5583 44.288H72.0703C72.6676 43.7333 73.2649 43.2 73.8623 42.688C74.5023 42.1333 75.0996 41.5787 75.6543 41.024L75.8463 41.216C75.1636 42.496 74.2249 43.7973 73.0303 45.12C71.8783 46.4427 70.8756 47.7867 70.0223 49.152C69.9369 49.1947 69.8089 49.2373 69.6383 49.28C69.5103 49.3653 69.4036 49.408 69.3183 49.408C68.5076 49.408 67.7396 49.024 67.0143 48.256C66.3316 47.5307 65.9903 46.7627 65.9903 45.952C65.9903 44.032 66.1183 42.0907 66.3743 40.128C66.6729 38.1227 66.9289 36.2027 67.1423 34.368L67.0143 33.6C67.4836 31.9787 67.8249 30.336 68.0383 28.672C68.2516 27.008 68.4223 25.3227 68.5503 23.616C68.1663 23.8293 67.5476 24.4267 66.6943 25.408C65.8409 26.3893 64.8596 27.5627 63.7503 28.928C62.6409 30.2933 61.5316 31.7013 60.4223 33.152C59.3556 34.56 58.3956 35.84 57.5423 36.992C56.6889 38.144 56.0916 38.976 55.7503 39.488C55.5369 39.8293 55.2169 40.3413 54.7903 41.024C54.4063 41.7067 54.0436 42.3893 53.7023 43.072C53.4036 43.7547 53.2116 44.3093 53.1263 44.736C53.0836 44.992 53.0409 45.376 52.9983 45.888C52.9983 46.3573 52.9129 46.8053 52.7423 47.232C52.6143 47.616 52.3583 47.808 51.9743 47.808C51.5476 47.808 51.1636 47.5947 50.8223 47.168C50.4809 46.6987 50.3103 46.3147 50.3103 46.016C50.3103 45.2053 50.4169 44.096 50.6303 42.688C50.8436 41.2373 51.0569 39.7653 51.2703 38.272C51.4836 36.7787 51.5903 35.584 51.5903 34.688C51.5903 34.4747 51.5689 34.2827 51.5263 34.112C51.5263 33.9413 51.5049 33.792 51.4623 33.664L51.7823 33.216L52.1023 31.104L52.4863 31.232H52.6783L52.9983 30.784L52.8063 30.272L52.0383 30.528C52.1236 29.3333 52.3369 28.1813 52.6783 27.072C53.0623 25.9627 53.2969 24.832 53.3823 23.68C52.3156 24.064 51.3343 24.6613 50.4383 25.472C49.5849 26.2827 48.7529 27.136 47.9423 28.032C47.1316 28.928 46.2569 29.7387 45.3183 30.464L45.1263 30.848C44.7849 31.104 44.1663 31.7013 43.2703 32.64C42.4169 33.536 41.4569 34.6027 40.3903 35.84C39.3236 37.0347 38.2783 38.2293 37.2543 39.424C36.2729 40.6187 35.4623 41.664 34.8223 42.56C34.2249 43.456 33.9689 44.032 34.0543 44.288C33.7129 44.8427 33.3503 45.376 32.9663 45.888C32.5823 46.4 32.2196 46.8907 31.8783 47.36C31.9636 47.5307 32.0063 47.68 32.0063 47.808C32.0063 48.192 31.7929 48.384 31.3663 48.384C30.9823 48.384 30.7476 48.512 30.6623 48.768L31.1103 49.344C31.0676 49.5147 30.9609 49.7067 30.7903 49.92C30.6623 50.176 30.4916 50.304 30.2783 50.304ZM37.5743 28.672C38.0009 28.5013 38.2143 28.224 38.2143 27.84V27.648L37.7663 27.904V28.16L37.5743 28.672ZM36.4863 29.696L36.5503 29.632L36.8063 29.504V29.632L36.4863 29.696ZM34.3103 34.496L34.5663 34.432L34.9503 33.6H34.7583L34.3103 34.496ZM76.3583 40.832L75.9743 40.704L76.2943 40.192L76.4223 40.128L76.5503 40.32L76.3583 40.832Z" fill="white"/>
<path d="M87.2027 20C86.554 20 85.9193 20.0628 85.3048 20.1828C84.8929 20.2633 84.5716 20.5796 84.4918 20.9833L83.9956 23.4922C83.9557 23.6937 83.7428 23.814 83.5447 23.7471L81.0754 22.9128C80.6793 22.7789 80.2398 22.8923 79.9626 23.1999C79.1241 24.1302 78.4692 25.2243 78.0545 26.4279C77.9204 26.817 78.0397 27.2469 78.3565 27.5162L80.3319 29.1948C80.4902 29.3294 80.4902 29.57 80.3319 29.7046L78.3563 31.3833C78.0395 31.6525 77.9202 32.0824 78.0543 32.4716C78.4689 33.6751 79.1237 34.7691 79.9621 35.6996C80.2393 36.0072 80.6788 36.1206 81.075 35.9867L83.5447 35.1523C83.7428 35.0853 83.9557 35.2056 83.9956 35.4071L84.4919 37.9168C84.5718 38.3204 84.893 38.6368 85.3049 38.7172C85.9194 38.8372 86.5541 38.9 87.2027 38.9C87.8559 38.9 88.495 38.8363 89.1134 38.7146C89.5247 38.6338 89.8453 38.3177 89.925 37.9145L90.421 35.4071C90.4608 35.2056 90.6736 35.0853 90.8719 35.1523L93.3331 35.9839C93.7294 36.1178 94.169 36.0042 94.4463 35.6963C95.2851 34.7645 95.9401 33.6687 96.354 32.4635C96.4877 32.0745 96.3682 31.6451 96.0516 31.376L94.0846 29.7045C93.9263 29.57 93.9263 29.3294 94.0846 29.1948L96.0515 27.5234C96.368 27.2544 96.4874 26.825 96.3538 26.436C95.9398 25.2306 95.2848 24.1348 94.4458 23.2031C94.1686 22.8953 93.7289 22.7817 93.3326 22.9156L90.8719 23.7471C90.6736 23.814 90.4608 23.6937 90.421 23.4922L89.9251 20.9855C89.8454 20.5823 89.5248 20.2662 89.1137 20.1853C88.4951 20.0637 87.856 20 87.2027 20ZM84.7909 29.45C84.7909 28.1454 85.8713 27.0877 87.204 27.0877C88.5368 27.0877 89.6171 28.1454 89.6171 29.45C89.6171 30.7547 88.5368 31.8124 87.204 31.8124C85.8713 31.8124 84.7909 30.7547 84.7909 29.45ZM93.2862 37.2581C93.455 37.0401 93.7511 36.9665 94.0151 37.0558L95.7519 37.6426C96.1122 37.7644 96.4992 37.5457 96.5716 37.1793L96.921 35.413C96.9741 35.144 97.1877 34.9296 97.4654 34.8962C97.7172 34.8657 97.9737 34.85 98.2339 34.85C98.4941 34.85 98.7504 34.8657 99.0022 34.8962C99.28 34.9296 99.4935 35.144 99.5468 35.413L99.8961 37.1793C99.9686 37.5457 100.356 37.7644 100.716 37.6426L102.453 37.0558C102.717 36.9665 103.013 37.0401 103.181 37.2581C103.49 37.6571 103.75 38.0945 103.952 38.5618C104.061 38.8139 103.978 39.1018 103.767 39.2812L102.378 40.4613C102.09 40.706 102.09 41.1434 102.378 41.3882L103.767 42.5685C103.978 42.7478 104.061 43.0357 103.952 43.2878C103.75 43.755 103.491 44.1924 103.182 44.5913C103.013 44.8094 102.717 44.8831 102.453 44.7938L100.716 44.2069C100.356 44.0851 99.9686 44.3038 99.8961 44.6702L99.5466 46.4371C99.4934 46.706 99.2798 46.9203 99.0021 46.9538C98.7505 46.9843 98.494 47 98.2339 47C97.9737 47 97.7174 46.9843 97.4656 46.9538C97.1879 46.9203 96.9743 46.706 96.921 46.4371L96.5716 44.6702C96.4992 44.3038 96.1122 44.0851 95.7519 44.2069L94.0149 44.7938C93.7507 44.8831 93.4547 44.8094 93.286 44.5913C92.9771 44.1924 92.7173 43.755 92.5157 43.2878C92.4069 43.0357 92.4898 42.7478 92.7009 42.5684L94.0897 41.3882C94.3775 41.1434 94.3775 40.706 94.0897 40.4613L92.701 39.2812C92.4899 39.1018 92.407 38.8139 92.5158 38.5618C92.7176 38.0946 92.9774 37.6571 93.2862 37.2581ZM99.958 40.925C99.958 39.9927 99.1859 39.2368 98.2336 39.2368C97.2812 39.2368 96.5092 39.9927 96.5092 40.925C96.5092 41.8574 97.2812 42.6133 98.2336 42.6133C99.1859 42.6133 99.958 41.8574 99.958 40.925Z" fill="white"/>
<path d="M8.3841 22.0677L8.0262 23.8772C7.74719 25.2879 6.25724 26.1301 4.86987 25.6613L3.08633 25.0586C2.76214 25.4906 2.48471 25.9579 2.26118 26.4533L3.68769 27.6655C4.79611 28.6074 4.7961 30.2919 3.68769 31.2339L2.26097 32.4462C2.48445 32.9416 2.7618 33.4089 3.08593 33.8409L4.86987 33.2381C6.25724 32.7692 7.74719 33.6115 8.0262 35.0221L8.38422 36.8323C8.92522 36.889 9.49179 36.8886 10.0325 36.8311L10.3903 35.0221C10.6694 33.6115 12.1593 32.7692 13.5466 33.2381L15.3218 33.8379C15.6464 33.4048 15.9241 32.9362 16.1476 32.4394L14.7289 31.2339C13.6204 30.2919 13.6204 28.6074 14.7289 27.6655L16.1474 26.4601C15.9238 25.9633 15.6461 25.4947 15.3214 25.0616L13.5466 25.6613C12.1593 26.1301 10.6694 25.2879 10.3903 23.8772L10.0327 22.0689C9.49183 22.0113 8.92518 22.0109 8.3841 22.0677ZM7.30477 20.1828C7.91927 20.0628 8.55403 20 9.20274 20C9.85599 20 10.4951 20.0637 11.1137 20.1853C11.5248 20.2662 11.8454 20.5823 11.9251 20.9855L12.421 23.4922C12.4608 23.6937 12.6736 23.814 12.8719 23.7471L15.3326 22.9156C15.7289 22.7817 16.1686 22.8953 16.4458 23.2031C17.2848 24.1348 17.9398 25.2306 18.3538 26.436C18.4874 26.825 18.368 27.2544 18.0515 27.5234L16.0846 29.1948C15.9263 29.3294 15.9263 29.57 16.0846 29.7045L18.0516 31.376C18.3682 31.6451 18.4877 32.0745 18.354 32.4635C17.9401 33.6687 17.2851 34.7645 16.4463 35.6963C16.169 36.0042 15.7294 36.1178 15.3331 35.9839L12.8719 35.1523C12.6736 35.0853 12.4608 35.2056 12.421 35.4071L11.925 37.9145C11.8453 38.3177 11.5247 38.6338 11.1134 38.7146C10.495 38.8363 9.85593 38.9 9.20274 38.9C8.55409 38.9 7.91938 38.8372 7.30492 38.7172C6.89304 38.6368 6.57177 38.3204 6.49191 37.9168L5.99556 35.4071C5.9557 35.2056 5.74285 35.0853 5.54466 35.1523L3.07498 35.9867C2.67884 36.1206 2.23934 36.0072 1.96208 35.6996C1.12371 34.7691 0.468869 33.6751 0.0542712 32.4716C-0.0797728 32.0824 0.0395443 31.6525 0.356322 31.3833L2.33187 29.7046C2.49022 29.57 2.49022 29.3294 2.33187 29.1948L0.356501 27.5162C0.0396959 27.2469 -0.0796074 26.817 0.054478 26.4279C0.469172 25.2243 1.12411 24.1302 1.96259 23.1999C2.23985 22.8923 2.67932 22.7789 3.07544 22.9128L5.54466 23.7471C5.74285 23.814 5.9557 23.6937 5.99556 23.4922L6.49179 20.9833C6.57163 20.5796 6.8929 20.2633 7.30477 20.1828ZM16.0153 37.0558C15.7511 36.9665 15.4552 37.0401 15.2862 37.2581C14.9774 37.6571 14.7176 38.0946 14.5158 38.5618C14.407 38.8139 14.4899 39.1018 14.701 39.2812L16.0897 40.4613C16.3776 40.706 16.3776 41.1434 16.0897 41.3882L14.7009 42.5684C14.4898 42.7478 14.4069 43.0357 14.5157 43.2878C14.7174 43.755 14.9771 44.1924 15.286 44.5913C15.4547 44.8094 15.7508 44.8831 16.0149 44.7938L17.7519 44.2069C18.1123 44.0851 18.4992 44.3038 18.5718 44.6702L18.9212 46.4371C18.9744 46.706 19.188 46.9203 19.4657 46.9538C19.7174 46.9843 19.9738 47 20.2339 47C20.4941 47 20.7505 46.9843 21.0021 46.9538C21.2798 46.9203 21.4935 46.706 21.5466 46.4371L21.8961 44.6702C21.9686 44.3038 22.3556 44.0851 22.7159 44.2069L24.453 44.7938C24.7172 44.8831 25.0131 44.8094 25.1819 44.5913C25.4907 44.1924 25.7504 43.755 25.9521 43.2878C26.0609 43.0357 25.978 42.7478 25.7669 42.5685L24.3781 41.3882C24.0902 41.1434 24.0902 40.706 24.3781 40.4613L25.7668 39.2812C25.9779 39.1018 26.0608 38.8139 25.952 38.5618C25.7502 38.0945 25.4905 37.6571 25.1816 37.2581C25.0127 37.0401 24.7168 36.9665 24.4527 37.0558L22.7159 37.6426C22.3556 37.7644 21.9686 37.5457 21.8961 37.1793L21.5468 35.413C21.4935 35.144 21.28 34.9296 21.0022 34.8962C20.7506 34.8657 20.4941 34.85 20.2339 34.85C19.9737 34.85 19.7174 34.8657 19.4656 34.8962C19.1879 34.9296 18.9743 35.144 18.921 35.413L18.5718 37.1793C18.4992 37.5457 18.1123 37.7644 17.7519 37.6426L16.0153 37.0558ZM20.2336 42.6133C19.2812 42.6133 18.5092 41.8574 18.5092 40.925C18.5092 39.9927 19.2812 39.2368 20.2336 39.2368C21.186 39.2368 21.9581 39.9927 21.9581 40.925C21.9581 41.8574 21.186 42.6133 20.2336 42.6133ZM7.82375 29.4499C7.82375 28.7044 8.44107 28.1 9.20266 28.1C9.96425 28.1 10.5815 28.7044 10.5815 29.4499C10.5815 30.1954 9.96425 30.7998 9.20266 30.7998C8.44107 30.7998 7.82375 30.1954 7.82375 29.4499ZM9.20266 26.075C7.29882 26.075 5.75538 27.586 5.75538 29.4499C5.75538 31.3138 7.29882 32.8249 9.20266 32.8249C11.1065 32.8249 12.6499 31.3138 12.6499 29.4499C12.6499 27.586 11.1065 26.075 9.20266 26.075Z" fill="white"/>
</svg>
